<svg width="171" height="52" viewBox="0 0 171 52" fill="none" xmlns="http://www.w3.org/2000/svg">
<path d="M80.7188 10.7734H76.2852V23H73.834V10.7734H69.4395V8.78125H80.7188V10.7734ZM91.5043 16.6523H85.6645V21.0273H92.4906V23H83.1938V8.78125H92.4223V10.7734H85.6645V14.6992H91.5043V16.6523ZM102.534 19.3379C102.534 18.7129 102.313 18.2311 101.87 17.8926C101.434 17.554 100.643 17.2122 99.4969 16.8672C98.351 16.5221 97.4396 16.138 96.7625 15.7148C95.4669 14.901 94.8191 13.8398 94.8191 12.5312C94.8191 11.3854 95.2846 10.4414 96.2156 9.69922C97.1531 8.95703 98.3673 8.58594 99.8582 8.58594C100.848 8.58594 101.73 8.76823 102.505 9.13281C103.279 9.4974 103.888 10.0182 104.331 10.6953C104.774 11.3659 104.995 12.1113 104.995 12.9316H102.534C102.534 12.1895 102.3 11.61 101.831 11.1934C101.369 10.7702 100.705 10.5586 99.8387 10.5586C99.0314 10.5586 98.4031 10.7311 97.9539 11.0762C97.5112 11.4212 97.2898 11.903 97.2898 12.5215C97.2898 13.0423 97.5307 13.4785 98.0125 13.8301C98.4943 14.1751 99.2885 14.5137 100.395 14.8457C101.502 15.1712 102.391 15.5456 103.061 15.9688C103.732 16.3854 104.223 16.8672 104.536 17.4141C104.848 17.9544 105.005 18.5892 105.005 19.3184C105.005 20.5033 104.549 21.4473 103.638 22.1504C102.733 22.847 101.502 23.1953 99.9461 23.1953C98.9174 23.1953 97.9702 23.0065 97.1043 22.6289C96.2449 22.2448 95.5743 21.7174 95.0926 21.0469C94.6173 20.3763 94.3797 19.5951 94.3797 18.7031H96.8504C96.8504 19.5104 97.1173 20.1354 97.6512 20.5781C98.185 21.0208 98.95 21.2422 99.9461 21.2422C100.805 21.2422 101.45 21.0697 101.88 20.7246C102.316 20.373 102.534 19.9108 102.534 19.3379ZM118.046 10.7734H113.612V23H111.161V10.7734H106.767V8.78125H118.046V10.7734Z" fill="white"/>
<path d="M77.6064 36.7598C77.5062 37.8216 77.1143 38.651 76.4307 39.248C75.7471 39.8405 74.8379 40.1367 73.7031 40.1367C72.9102 40.1367 72.2106 39.9499 71.6045 39.5762C71.0029 39.1979 70.5381 38.6624 70.21 37.9697C69.8818 37.277 69.7109 36.4727 69.6973 35.5566V34.627C69.6973 33.6882 69.8636 32.861 70.1963 32.1455C70.529 31.43 71.0052 30.8786 71.625 30.4912C72.2493 30.1038 72.9694 29.9102 73.7852 29.9102C74.8835 29.9102 75.7676 30.2087 76.4375 30.8057C77.1074 31.4027 77.4971 32.2458 77.6064 33.335H75.8838C75.8018 32.6195 75.5921 32.1045 75.2549 31.79C74.9222 31.471 74.4323 31.3115 73.7852 31.3115C73.0332 31.3115 72.4544 31.5872 72.0488 32.1387C71.6478 32.6855 71.4427 33.4899 71.4336 34.5518V35.4336C71.4336 36.5091 71.625 37.3294 72.0078 37.8945C72.3952 38.4596 72.9603 38.7422 73.7031 38.7422C74.3822 38.7422 74.8926 38.5895 75.2344 38.2842C75.5762 37.9788 75.7926 37.4707 75.8838 36.7598H77.6064ZM87.5295 37.6826H83.674L82.8674 40H81.0695L84.8293 30.0469H86.3811L90.1477 40H88.343L87.5295 37.6826ZM84.1594 36.2881H87.0441L85.6018 32.1592L84.1594 36.2881ZM95.8119 36.3018V40H94.0824V30.0469H97.89C99.002 30.0469 99.8839 30.3363 100.536 30.915C101.192 31.4938 101.52 32.2594 101.52 33.2119C101.52 34.1872 101.199 34.946 100.556 35.4883C99.918 36.0306 99.0225 36.3018 97.8695 36.3018H95.8119ZM95.8119 34.9141H97.89C98.5053 34.9141 98.9747 34.7705 99.2982 34.4834C99.6218 34.1917 99.7836 33.7725 99.7836 33.2256C99.7836 32.6878 99.6195 32.2594 99.2914 31.9404C98.9633 31.6169 98.5121 31.4505 97.9379 31.4414H95.8119V34.9141ZM107.663 40H105.94V30.0469H107.663V40ZM119.575 31.4414H116.471V40H114.756V31.4414H111.679V30.0469H119.575V31.4414ZM128.438 37.6826H124.583L123.776 40H121.979L125.738 30.0469H127.29L131.057 40H129.252L128.438 37.6826ZM125.068 36.2881H127.953L126.511 32.1592L125.068 36.2881ZM136.721 38.6191H141.239V40H134.991V30.0469H136.721V38.6191Z" fill="white"/>
<path opacity="0.35" d="M33.5649 46.576C31.0351 51.5866 24.0998 52.1446 20.8014 47.603L0.673957 19.8895C-1.12091 17.4181 0.909242 13.9982 3.93832 14.3905C21.0449 16.6057 38.3252 11.8672 51.9092 1.2363L52.9758 0.401553C54.5143 -0.802517 56.6153 0.921433 55.7348 2.66543L33.5649 46.576Z" fill="white"/>
<path opacity="0.5" d="M33.5652 46.5752C31.1198 51.4186 24.3321 51.7589 21.4146 47.1843L7.75033 25.7591C6.49494 23.7907 7.88488 21.2081 10.2193 21.1717C23.4187 20.966 36.1073 16.0362 45.9834 7.27659L53.555 0.560819C54.7924 -0.536676 56.6348 0.882611 55.8894 2.35906L33.5652 46.5752Z" fill="white"/>
<path d="M33.4069 46.8889C31.1833 51.2929 24.8906 51.2807 22.6843 46.868L15.333 32.1656C14.5589 30.6174 15.4588 28.7556 17.1529 28.4003C27.367 26.2586 36.6268 20.902 43.5755 13.1155L54.3546 1.03671C55.1334 0.163955 56.5206 1.10903 55.9934 2.15324L33.4069 46.8889Z" fill="white"/>
</svg>
