<svg width="176" height="53" viewBox="0 0 176 53" fill="none" xmlns="http://www.w3.org/2000/svg">
<path d="M85.7188 11.7734H81.2852V24H78.834V11.7734H74.4395V9.78125H85.7188V11.7734ZM91.7387 24.1953C90.2348 24.1953 89.0141 23.7233 88.0766 22.7793C87.1456 21.8288 86.6801 20.5658 86.6801 18.9902V18.6973C86.6801 17.6426 86.8819 16.7018 87.2855 15.875C87.6957 15.0417 88.2686 14.3939 89.0043 13.9316C89.74 13.4694 90.5603 13.2383 91.4652 13.2383C92.904 13.2383 94.0141 13.6973 94.7953 14.6152C95.5831 15.5332 95.977 16.832 95.977 18.5117V19.4688H89.0727C89.1443 20.3411 89.434 21.0312 89.9418 21.5391C90.4561 22.0469 91.1007 22.3008 91.8754 22.3008C92.9626 22.3008 93.848 21.8613 94.5316 20.9824L95.8109 22.2031C95.3878 22.8346 94.8214 23.3262 94.1117 23.6777C93.4086 24.0228 92.6176 24.1953 91.7387 24.1953ZM91.4555 15.1426C90.8044 15.1426 90.2771 15.3704 89.8734 15.8262C89.4763 16.2819 89.2224 16.9167 89.1117 17.7305H93.6332V17.5547C93.5811 16.7604 93.3695 16.1615 92.9984 15.7578C92.6273 15.3477 92.113 15.1426 91.4555 15.1426ZM104.35 21.1289C104.35 20.7057 104.175 20.3835 103.823 20.1621C103.478 19.9408 102.902 19.7454 102.095 19.5762C101.287 19.4069 100.613 19.1921 100.073 18.9316C98.8882 18.3587 98.2957 17.5286 98.2957 16.4414C98.2957 15.5299 98.6798 14.7682 99.448 14.1562C100.216 13.5443 101.193 13.2383 102.378 13.2383C103.641 13.2383 104.66 13.5508 105.434 14.1758C106.216 14.8008 106.606 15.6113 106.606 16.6074H104.233C104.233 16.1517 104.064 15.7741 103.725 15.4746C103.387 15.1686 102.938 15.0156 102.378 15.0156C101.857 15.0156 101.43 15.1361 101.098 15.377C100.773 15.6178 100.61 15.9401 100.61 16.3438C100.61 16.7083 100.763 16.9915 101.069 17.1934C101.375 17.3952 101.994 17.6003 102.925 17.8086C103.856 18.0104 104.585 18.2546 105.112 18.541C105.646 18.821 106.04 19.1595 106.294 19.5566C106.554 19.9538 106.684 20.4355 106.684 21.002C106.684 21.9525 106.29 22.724 105.503 23.3164C104.715 23.9023 103.683 24.1953 102.407 24.1953C101.541 24.1953 100.77 24.0391 100.093 23.7266C99.4155 23.4141 98.8882 22.9844 98.5105 22.4375C98.1329 21.8906 97.9441 21.3014 97.9441 20.6699H100.249C100.281 21.2298 100.493 21.6628 100.884 21.9688C101.274 22.2682 101.792 22.418 102.436 22.418C103.061 22.418 103.537 22.3008 103.862 22.0664C104.188 21.8255 104.35 21.513 104.35 21.1289ZM112.333 10.8652V13.4336H114.198V15.1914H112.333V21.0898C112.333 21.4935 112.411 21.7865 112.568 21.9688C112.73 22.1445 113.017 22.2324 113.427 22.2324C113.7 22.2324 113.977 22.1999 114.257 22.1348V23.9707C113.717 24.1204 113.196 24.1953 112.695 24.1953C110.872 24.1953 109.96 23.1895 109.96 21.1777V15.1914H108.222V13.4336H109.96V10.8652H112.333Z" fill="#48588D"/>
<path d="M82.6064 37.7598C82.5062 38.8216 82.1143 39.651 81.4307 40.248C80.7471 40.8405 79.8379 41.1367 78.7031 41.1367C77.9102 41.1367 77.2106 40.9499 76.6045 40.5762C76.0029 40.1979 75.5381 39.6624 75.21 38.9697C74.8818 38.277 74.7109 37.4727 74.6973 36.5566V35.627C74.6973 34.6882 74.8636 33.861 75.1963 33.1455C75.529 32.43 76.0052 31.8786 76.625 31.4912C77.2493 31.1038 77.9694 30.9102 78.7852 30.9102C79.8835 30.9102 80.7676 31.2087 81.4375 31.8057C82.1074 32.4027 82.4971 33.2458 82.6064 34.335H80.8838C80.8018 33.6195 80.5921 33.1045 80.2549 32.79C79.9222 32.471 79.4323 32.3115 78.7852 32.3115C78.0332 32.3115 77.4544 32.5872 77.0488 33.1387C76.6478 33.6855 76.4427 34.4899 76.4336 35.5518V36.4336C76.4336 37.5091 76.625 38.3294 77.0078 38.8945C77.3952 39.4596 77.9603 39.7422 78.7031 39.7422C79.3822 39.7422 79.8926 39.5895 80.2344 39.2842C80.5762 38.9788 80.7926 38.4707 80.8838 37.7598H82.6064ZM92.5295 38.6826H88.674L87.8674 41H86.0695L89.8293 31.0469H91.3811L95.1477 41H93.343L92.5295 38.6826ZM89.1594 37.2881H92.0441L90.6018 33.1592L89.1594 37.2881ZM100.812 37.3018V41H99.0824V31.0469H102.89C104.002 31.0469 104.884 31.3363 105.536 31.915C106.192 32.4938 106.52 33.2594 106.52 34.2119C106.52 35.1872 106.199 35.946 105.556 36.4883C104.918 37.0306 104.023 37.3018 102.87 37.3018H100.812ZM100.812 35.9141H102.89C103.505 35.9141 103.975 35.7705 104.298 35.4834C104.622 35.1917 104.784 34.7725 104.784 34.2256C104.784 33.6878 104.62 33.2594 104.291 32.9404C103.963 32.6169 103.512 32.4505 102.938 32.4414H100.812V35.9141ZM112.663 41H110.94V31.0469H112.663V41ZM124.575 32.4414H121.471V41H119.756V32.4414H116.679V31.0469H124.575V32.4414ZM133.438 38.6826H129.583L128.776 41H126.979L130.738 31.0469H132.29L136.057 41H134.252L133.438 38.6826ZM130.068 37.2881H132.953L131.511 33.1592L130.068 37.2881ZM141.721 39.6191H146.239V41H139.991V31.0469H141.721V39.6191Z" fill="#ACACAC"/>
<path opacity="0.35" d="M33.5649 46.576C31.0351 51.5866 24.0998 52.1446 20.8014 47.603L0.673957 19.8895C-1.12091 17.4181 0.909242 13.9982 3.93832 14.3905C21.0449 16.6057 38.3252 11.8672 51.9092 1.2363L52.9758 0.401553C54.5143 -0.802517 56.6153 0.921433 55.7348 2.66543L33.5649 46.576Z" fill="#8797CC"/>
<path opacity="0.5" d="M33.5652 46.5753C31.1198 51.4188 24.3321 51.759 21.4146 47.1844L7.75034 25.7592C6.49496 23.7908 7.88489 21.2082 10.2193 21.1719C23.4187 20.9661 36.1073 16.0364 45.9834 7.27671L53.5551 0.560941C54.7924 -0.536554 56.6349 0.882733 55.8894 2.35918L33.5652 46.5753Z" fill="#7085CC"/>
<path d="M33.4069 46.8889C31.1833 51.2929 24.8906 51.2807 22.6843 46.868L15.333 32.1656C14.5589 30.6174 15.4588 28.7556 17.1529 28.4003C27.367 26.2586 36.6268 20.902 43.5755 13.1155L54.3546 1.03671C55.1334 0.163955 56.5206 1.10903 55.9934 2.15324L33.4069 46.8889Z" fill="#48588D"/>
</svg>
